<?xml version="1.0" encoding="utf-8"?>
<svg xmlns="http://www.w3.org/2000/svg" viewBox="216.6286 153.5124 89 86" width="89px" height="86px" style="">
  <g id="Capa_1" transform="matrix(0.357754, 0, 0, 0.497802, 49.678875, 76.074394)" style="transform-origin: 166.866px 75.7708px;">
    <g id="SVGRepo_bgCarrier" stroke-width="0" transform="matrix(1, 0, 0, 1, 185.279587, 57.005901)"/>
    <g id="SVGRepo_tracerCarrier" stroke-linecap="round" stroke-linejoin="round" transform="matrix(1, 0, 0, 1, 185.279587, 57.005901)"/>
    <g id="group-1" transform="matrix(1, 0, 0, 1, 185.279587, 57.005901)">
      <g>
        <path d="M144.797,47.095c0-4.142-3.358-7.5-7.5-7.5H7.5c-4.142,0-7.5,3.358-7.5,7.5c0,4.142,3.358,7.5,7.5,7.5h129.797 C141.439,54.595,144.797,51.237,144.797,47.095z" style="fill: rgb(72, 72, 74);"/>
        <path d="M209.93,70.405H58.632c-4.142,0-7.5,3.358-7.5,7.5s3.358,7.5,7.5,7.5H209.93c4.142,0,7.5-3.358,7.5-7.5 S214.072,70.405,209.93,70.405z" style="fill: rgb(72, 72, 74);"/>
        <path d="M174.53,116.214c4.142,0,7.5-3.358,7.5-7.5c0-4.142-3.358-7.5-7.5-7.5H22.446c-4.142,0-7.5,3.358-7.5,7.5 c0,4.142,3.358,7.5,7.5,7.5H174.53z" style="fill: rgb(72, 72, 74);"/>
        <path d="M199.441,132.024H47.619c-4.142,0-7.5,3.358-7.5,7.5s3.358,7.5,7.5,7.5h151.822c4.142,0,7.5-3.358,7.5-7.5 S203.583,132.024,199.441,132.024z" style="fill: rgb(72, 72, 74);"/>
        <path d="M125.759,162.835H25.068c-4.142,0-7.5,3.358-7.5,7.5c0,4.142,3.358,7.5,7.5,7.5h100.69c4.142,0,7.5-3.358,7.5-7.5 C133.259,166.193,129.901,162.835,125.759,162.835z" style="fill: rgb(72, 72, 74);"/>
      </g>
    </g>
  </g>
</svg>