<?xml version="1.0" encoding="utf-8"?>
<svg xmlns="http://www.w3.org/2000/svg" viewBox="0 0 89 86" preserveAspectRatio="xMidYMid slice" xmlns:bx="https://boxy-svg.com">
  <defs>
    <filter id="filter1_f_44_430" x="0.11358" y="0.257257" width="67.7082" height="71.8444" filterUnits="userSpaceOnUse" color-interpolation-filters="sRGB">
      <feFlood flood-opacity="0" result="BackgroundImageFix"/>
      <feBlend mode="normal" in="SourceGraphic" in2="BackgroundImageFix" result="shape"/>
      <feGaussianBlur stdDeviation="5.88138" result="effect1_foregroundBlur_44_430"/>
    </filter>
    <filter id="filter2_i_44_430" x="13.2895" y="15.2031" width="40.3314" height="44.9947" filterUnits="userSpaceOnUse" color-interpolation-filters="sRGB">
      <feFlood flood-opacity="0" result="BackgroundImageFix"/>
      <feBlend mode="normal" in="SourceGraphic" in2="BackgroundImageFix" result="shape"/>
      <feColorMatrix in="SourceAlpha" type="matrix" values="0 0 0 0 0 0 0 0 0 0 0 0 0 0 0 0 0 0 127 0" result="hardAlpha"/>
      <feOffset dy="0.887756"/>
      <feGaussianBlur stdDeviation="0.887756"/>
      <feComposite in2="hardAlpha" operator="arithmetic" k2="-1" k3="1"/>
      <feColorMatrix type="matrix" values="0 0 0 0 1 0 0 0 0 1 0 0 0 0 1 0 0 0 0.55 0"/>
      <feBlend mode="normal" in2="shape" result="effect1_innerShadow_44_430"/>
    </filter>
    <linearGradient id="paint1_linear_44_430" x1="34.6263" y1="11.5465" x2="26.5643" y2="60.3621" gradientUnits="userSpaceOnUse">
      <stop stop-color="#FFEE94"/>
      <stop offset="1" stop-color="#FF9900"/>
    </linearGradient>
    <bx:export>
      <bx:file format="svg" path="Sem título.svg"/>
    </bx:export>
  </defs>
  <g style="" transform="matrix(1.12259, 0, 0, 1.12259, -6.26449, -4.52816)">
    <g filter="url(#filter1_f_44_430)" transform="matrix(0.969721, 0, 0, 1.03682, 7.6766, 3.66531)" style="transform-origin: -4.8977px 3.45481px;">
      <path d="M34.0392 12.0198C28.476 19.5732 27.5113 29.8815 32.4189 38.3816C37.3264 46.8817 46.736 51.2005 56.0591 50.1593C54.0767 52.8507 51.5105 55.1924 48.418 56.9779C36.6469 63.774 21.7085 59.9372 15.0522 48.4082C8.39599 36.8793 12.5424 22.0239 24.3136 15.2278C27.4061 13.4424 30.7172 12.3908 34.0392 12.0198Z" fill="#FFEE94"/>
    </g>
    <g filter="url(#filter2_i_44_430)" transform="matrix(1.35785, 0, 0, 1.35317, -0.594875, -6.67586)" style="transform-origin: -2.31821px 3.87298px;">
      <path d="M33.5205 15.2031C28.4422 22.0981 27.5616 31.5078 32.0414 39.267C36.5212 47.0262 45.1106 50.9685 53.6209 50.0181C51.8114 52.4749 49.4689 54.6125 46.646 56.2423C35.9009 62.446 22.2646 58.9437 16.1886 48.4197C10.1125 37.8957 13.8976 24.3352 24.6427 18.1315C27.4656 16.5017 30.488 15.5418 33.5205 15.2031Z" fill="url(#paint1_linear_44_430)"/>
    </g>
  </g>
</svg>