<?xml version="1.0" encoding="utf-8"?>
<svg width="27" height="33" viewBox="0 0 27 33" fill="none" xmlns="http://www.w3.org/2000/svg">
  <g transform="matrix(0.1, -0.000007, -0.000007, -0.1, -1263.8, -1270.89)" fill="#000000" stroke="none" style="transform-origin: 1280px 1279.44px;">
    <g style="" transform="matrix(0.117716, 0, 0, 0.117716, 1102.46, 1042.37)">
      <path d="M1091 1874 c-285 -48 -606 -224 -864 -473 -78 -76 -87 -88 -87 -121 0 -33 9 -45 87 -121 319 -308 708 -489 1053 -489 345 0 734 181 1053 489 78 76 87 88 87 121 0 33 -9 45 -82 116 -386 374 -837 547 -1247 478z m286 -145 c215 -24 455 -127 668 -287 85 -65 185 -152 185 -163 0 -4 -37 -40 -82 -79 -243 -207 -519 -340 -771 -370 -303 -36 -655 103 -985 388 -34 29 -62 58 -62 63 0 4 37 40 83 79 235 201 524 342 757 369 107 12 101 12 207 0z" style="fill: rgb(171, 171, 171);"/>
      <path d="M1150 1598 c-76 -29 -160 -114 -188 -191 -49 -131 -20 -271 77 -368 70 -70 141 -99 241 -99 100 0 171 29 241 99 97 97 126 237 77 368 -29 79 -112 162 -191 191 -77 29 -181 29 -257 0z m198 -143 c160 -67 160 -283 0 -350 -47 -19 -89 -19 -136 0 -157 66 -161 275 -7 346 49 23 94 24 143 4z" style="fill: rgb(171, 171, 171);"/>
    </g>
  </g>
</svg>